<svg width="36" height="36" viewBox="0 0 36 36" fill="none" xmlns="http://www.w3.org/2000/svg">
<rect width="36" height="36" rx="18" fill="#F5F5F5"/>
<path d="M24.5625 10.1875H11.4375C11.106 10.1875 10.788 10.3192 10.5536 10.5536C10.3192 10.788 10.1875 11.106 10.1875 11.4375V24.5625C10.1875 24.894 10.3192 25.212 10.5536 25.4464C10.788 25.6808 11.106 25.8125 11.4375 25.8125H24.5625C24.894 25.8125 25.212 25.6808 25.4464 25.4464C25.6808 25.212 25.8125 24.894 25.8125 24.5625V11.4375C25.8125 11.106 25.6808 10.788 25.4464 10.5536C25.212 10.3192 24.894 10.1875 24.5625 10.1875ZM15.5 21.75C15.5 21.9158 15.4342 22.0747 15.3169 22.1919C15.1997 22.3092 15.0408 22.375 14.875 22.375C14.7092 22.375 14.5503 22.3092 14.4331 22.1919C14.3158 22.0747 14.25 21.9158 14.25 21.75V16.75C14.25 16.5842 14.3158 16.4253 14.4331 16.3081C14.5503 16.1908 14.7092 16.125 14.875 16.125C15.0408 16.125 15.1997 16.1908 15.3169 16.3081C15.4342 16.4253 15.5 16.5842 15.5 16.75V21.75ZM14.875 15.1875C14.6896 15.1875 14.5083 15.1325 14.3542 15.0295C14.2 14.9265 14.0798 14.7801 14.0089 14.6088C13.9379 14.4375 13.9193 14.249 13.9555 14.0671C13.9917 13.8852 14.081 13.7182 14.2121 13.5871C14.3432 13.456 14.5102 13.3667 14.6921 13.3305C14.874 13.2943 15.0625 13.3129 15.2338 13.3839C15.4051 13.4548 15.5515 13.575 15.6545 13.7292C15.7575 13.8833 15.8125 14.0646 15.8125 14.25C15.8125 14.4986 15.7137 14.7371 15.5379 14.9129C15.3621 15.0887 15.1236 15.1875 14.875 15.1875ZM22.375 21.75C22.375 21.9158 22.3092 22.0747 22.1919 22.1919C22.0747 22.3092 21.9158 22.375 21.75 22.375C21.5842 22.375 21.4253 22.3092 21.3081 22.1919C21.1908 22.0747 21.125 21.9158 21.125 21.75V18.9375C21.125 18.5231 20.9604 18.1257 20.6674 17.8326C20.3743 17.5396 19.9769 17.375 19.5625 17.375C19.1481 17.375 18.7507 17.5396 18.4576 17.8326C18.1646 18.1257 18 18.5231 18 18.9375V21.75C18 21.9158 17.9342 22.0747 17.8169 22.1919C17.6997 22.3092 17.5408 22.375 17.375 22.375C17.2092 22.375 17.0503 22.3092 16.9331 22.1919C16.8158 22.0747 16.75 21.9158 16.75 21.75V16.75C16.7496 16.5962 16.8059 16.4476 16.9081 16.3327C17.0104 16.2178 17.1514 16.1447 17.3043 16.1273C17.4571 16.1098 17.611 16.1494 17.7364 16.2384C17.8619 16.3273 17.9502 16.4594 17.9844 16.6094C18.4073 16.3227 18.9003 16.1566 19.4105 16.129C19.9206 16.1014 20.4287 16.2133 20.8801 16.4526C21.3314 16.6919 21.7091 17.0497 21.9725 17.4875C22.2359 17.9253 22.375 18.4266 22.375 18.9375V21.75Z" fill="black"/>
</svg>
