<svg width="140" height="20" viewBox="0 0 140 20" fill="none" xmlns="http://www.w3.org/2000/svg">
<path d="M18.3203 8.9359L14.7969 12.0109L15.8524 16.589C15.9082 16.8284 15.8923 17.0788 15.8065 17.3092C15.7208 17.5395 15.5691 17.7394 15.3703 17.884C15.1716 18.0286 14.9346 18.1113 14.6891 18.1219C14.4436 18.1326 14.2004 18.0706 13.9899 17.9437L9.99689 15.5218L6.01252 17.9437C5.80203 18.0706 5.55881 18.1326 5.31328 18.1219C5.06775 18.1113 4.83079 18.0286 4.63204 17.884C4.4333 17.7394 4.28157 17.5395 4.19584 17.3092C4.1101 17.0788 4.09417 16.8284 4.15002 16.589L5.20392 12.0156L1.6797 8.9359C1.49331 8.77514 1.35852 8.56292 1.29225 8.32586C1.22598 8.0888 1.23117 7.83745 1.30718 7.60333C1.38319 7.36921 1.52663 7.16275 1.71952 7.00982C1.9124 6.8569 2.14614 6.76433 2.39142 6.74372L7.03674 6.34137L8.85002 2.01637C8.94471 1.78943 9.10443 1.59558 9.30907 1.45923C9.51371 1.32288 9.75412 1.25012 10 1.25012C10.2459 1.25012 10.4863 1.32288 10.691 1.45923C10.8956 1.59558 11.0553 1.78943 11.15 2.01637L12.9688 6.34137L17.6125 6.74372C17.8578 6.76433 18.0915 6.8569 18.2844 7.00982C18.4773 7.16275 18.6208 7.36921 18.6968 7.60333C18.7728 7.83745 18.778 8.0888 18.7117 8.32586C18.6454 8.56292 18.5106 8.77514 18.3242 8.9359H18.3203Z" fill="#FF710A"/>
<path d="M48.3203 8.9359L44.7969 12.0109L45.8524 16.589C45.9082 16.8284 45.8923 17.0788 45.8065 17.3092C45.7208 17.5395 45.5691 17.7394 45.3703 17.884C45.1716 18.0286 44.9346 18.1113 44.6891 18.1219C44.4436 18.1326 44.2004 18.0706 43.9899 17.9437L39.9969 15.5218L36.0125 17.9437C35.802 18.0706 35.5588 18.1326 35.3133 18.1219C35.0677 18.1113 34.8308 18.0286 34.632 17.884C34.4333 17.7394 34.2816 17.5395 34.1958 17.3092C34.1101 17.0788 34.0942 16.8284 34.15 16.589L35.2039 12.0156L31.6797 8.9359C31.4933 8.77514 31.3585 8.56292 31.2922 8.32586C31.226 8.0888 31.2312 7.83745 31.3072 7.60333C31.3832 7.36921 31.5266 7.16275 31.7195 7.00982C31.9124 6.8569 32.1461 6.76433 32.3914 6.74372L37.0367 6.34137L38.85 2.01637C38.9447 1.78943 39.1044 1.59558 39.3091 1.45923C39.5137 1.32288 39.7541 1.25012 40 1.25012C40.2459 1.25012 40.4863 1.32288 40.691 1.45923C40.8956 1.59558 41.0553 1.78943 41.15 2.01637L42.9688 6.34137L47.6125 6.74372C47.8578 6.76433 48.0915 6.8569 48.2844 7.00982C48.4773 7.16275 48.6208 7.36921 48.6968 7.60333C48.7728 7.83745 48.778 8.0888 48.7117 8.32586C48.6454 8.56292 48.5106 8.77514 48.3242 8.9359H48.3203Z" fill="#FF710A"/>
<path d="M78.3203 8.9359L74.7969 12.0109L75.8524 16.589C75.9082 16.8284 75.8923 17.0788 75.8065 17.3092C75.7208 17.5395 75.5691 17.7394 75.3703 17.884C75.1716 18.0286 74.9346 18.1113 74.6891 18.1219C74.4436 18.1326 74.2004 18.0706 73.9899 17.9437L69.9969 15.5218L66.0125 17.9437C65.802 18.0706 65.5588 18.1326 65.3133 18.1219C65.0677 18.1113 64.8308 18.0286 64.632 17.884C64.4333 17.7394 64.2816 17.5395 64.1958 17.3092C64.1101 17.0788 64.0942 16.8284 64.15 16.589L65.2039 12.0156L61.6797 8.9359C61.4933 8.77514 61.3585 8.56292 61.2922 8.32586C61.226 8.0888 61.2312 7.83745 61.3072 7.60333C61.3832 7.36921 61.5266 7.16275 61.7195 7.00982C61.9124 6.8569 62.1461 6.76433 62.3914 6.74372L67.0367 6.34137L68.85 2.01637C68.9447 1.78943 69.1044 1.59558 69.3091 1.45923C69.5137 1.32288 69.7541 1.25012 70 1.25012C70.2459 1.25012 70.4863 1.32288 70.691 1.45923C70.8956 1.59558 71.0553 1.78943 71.15 2.01637L72.9688 6.34137L77.6125 6.74372C77.8578 6.76433 78.0915 6.8569 78.2844 7.00982C78.4773 7.16275 78.6208 7.36921 78.6968 7.60333C78.7728 7.83745 78.778 8.0888 78.7117 8.32586C78.6454 8.56292 78.5106 8.77514 78.3242 8.9359H78.3203Z" fill="#FF710A"/>
<path d="M108.32 8.9359L104.797 12.0109L105.852 16.589C105.908 16.8284 105.892 17.0788 105.807 17.3092C105.721 17.5395 105.569 17.7394 105.37 17.884C105.172 18.0286 104.935 18.1113 104.689 18.1219C104.444 18.1326 104.2 18.0706 103.99 17.9437L99.9969 15.5218L96.0125 17.9437C95.802 18.0706 95.5588 18.1326 95.3133 18.1219C95.0677 18.1113 94.8308 18.0286 94.632 17.884C94.4333 17.7394 94.2816 17.5395 94.1958 17.3092C94.1101 17.0788 94.0942 16.8284 94.15 16.589L95.2039 12.0156L91.6797 8.9359C91.4933 8.77514 91.3585 8.56292 91.2922 8.32586C91.226 8.0888 91.2312 7.83745 91.3072 7.60333C91.3832 7.36921 91.5266 7.16275 91.7195 7.00982C91.9124 6.8569 92.1461 6.76433 92.3914 6.74372L97.0367 6.34137L98.85 2.01637C98.9447 1.78943 99.1044 1.59558 99.3091 1.45923C99.5137 1.32288 99.7541 1.25012 100 1.25012C100.246 1.25012 100.486 1.32288 100.691 1.45923C100.896 1.59558 101.055 1.78943 101.15 2.01637L102.969 6.34137L107.613 6.74372C107.858 6.76433 108.092 6.8569 108.284 7.00982C108.477 7.16275 108.621 7.36921 108.697 7.60333C108.773 7.83745 108.778 8.0888 108.712 8.32586C108.645 8.56292 108.511 8.77514 108.324 8.9359H108.32Z" fill="#FF710A"/>
<path d="M138.688 7.60075C138.612 7.36746 138.469 7.16158 138.277 7.00878C138.086 6.85597 137.853 6.76297 137.609 6.74137L132.969 6.34137L131.15 2.01637C131.055 1.78943 130.896 1.59558 130.691 1.45923C130.486 1.32288 130.246 1.25012 130 1.25012C129.754 1.25012 129.514 1.32288 129.309 1.45923C129.105 1.59558 128.945 1.78943 128.85 2.01637L127.037 6.34137L122.392 6.74294C122.146 6.7634 121.912 6.85592 121.719 7.00889C121.526 7.16187 121.382 7.36846 121.306 7.60275C121.23 7.83703 121.225 8.08855 121.292 8.32574C121.358 8.56292 121.493 8.7752 121.68 8.9359L125.204 12.0156L124.148 16.589C124.092 16.8284 124.108 17.0788 124.194 17.3092C124.279 17.5395 124.431 17.7394 124.63 17.884C124.829 18.0286 125.065 18.1113 125.311 18.1219C125.557 18.1326 125.8 18.0706 126.01 17.9437L129.995 15.5218L133.988 17.9437C134.198 18.0706 134.441 18.1326 134.687 18.1219C134.932 18.1113 135.169 18.0286 135.368 17.884C135.567 17.7394 135.719 17.5395 135.804 17.3092C135.89 17.0788 135.906 16.8284 135.85 16.589L134.795 12.0109L138.318 8.9359C138.504 8.77459 138.639 8.56176 138.705 8.3242C138.77 8.08664 138.765 7.83494 138.688 7.60075ZM137.499 7.99137L133.975 11.0664C133.804 11.2155 133.676 11.4086 133.606 11.6249C133.536 11.8412 133.527 12.0724 133.578 12.2937L134.637 16.875L130.647 14.4531C130.452 14.3345 130.229 14.2718 130.001 14.2718V2.507L131.813 6.82575C131.901 7.03564 132.045 7.21751 132.229 7.35174C132.413 7.48598 132.63 7.56748 132.856 7.58747L137.5 7.98903C137.5 7.98903 137.5 7.99372 137.5 7.9945L137.499 7.99137Z" fill="#FF710A"/>
</svg>
