<svg width="36" height="36" viewBox="0 0 36 36" fill="none" xmlns="http://www.w3.org/2000/svg">
<rect width="36" height="36" rx="18" fill="#F5F5F5"/>
<path d="M27.1953 14.0704L24.8359 16.4219C24.3672 21.8829 19.7578 26.1251 14.25 26.1251C13.1172 26.1251 12.1797 25.9454 11.4687 25.5938C10.8984 25.3048 10.664 25.0001 10.6015 24.9063C10.5498 24.8278 10.5165 24.7386 10.504 24.6454C10.4916 24.5522 10.5003 24.4573 10.5296 24.368C10.5589 24.2786 10.608 24.197 10.6732 24.1293C10.7384 24.0615 10.818 24.0093 10.9062 23.9766C10.9218 23.9688 12.7656 23.2657 13.9609 21.9141C13.2196 21.3863 12.5681 20.7427 12.0312 20.0079C10.9609 18.5548 9.82809 16.0313 10.5078 12.2657C10.5291 12.1537 10.5803 12.0496 10.656 11.9644C10.7316 11.8791 10.8289 11.8159 10.9375 11.7813C11.0464 11.7456 11.1631 11.7406 11.2747 11.7668C11.3863 11.793 11.4886 11.8494 11.5703 11.9298C11.5937 11.961 14.1953 14.5235 17.375 15.3516V14.8751C17.378 14.3795 17.4787 13.8895 17.6711 13.4328C17.8636 12.9762 18.1442 12.5619 18.4967 12.2137C18.8493 11.8655 19.267 11.5901 19.726 11.4033C20.185 11.2165 20.6763 11.122 21.1718 11.1251C21.8222 11.1343 22.4591 11.3119 23.0205 11.6405C23.5818 11.9691 24.0485 12.4375 24.375 13.0001H26.75C26.8734 12.9997 26.9941 13.0358 27.097 13.104C27.1999 13.1721 27.2803 13.2691 27.3281 13.3829C27.3731 13.4983 27.3845 13.6242 27.361 13.7458C27.3375 13.8675 27.2801 13.98 27.1953 14.0704Z" fill="black"/>
</svg>
